HIERARCHY
ROOT Hips
{
    OFFSET 0.000000 0.000000 0.000000
    CHANNELS 6 Xposition Yposition Zposition Zrotation Xrotation Yrotation
    JOINT Chest
    {
        OFFSET -0.000000 0.078598 0.000000
        CHANNELS 3 Zrotation Xrotation Yrotation
        JOINT Chest2
        {
            OFFSET -0.000000 0.230468 0.000000
            CHANNELS 3 Zrotation Xrotation Yrotation
            JOINT Neck
            {
                OFFSET -0.000000 0.249638 0.000000
                CHANNELS 3 Zrotation Xrotation Yrotation
                JOINT Head
                {
                    OFFSET -0.000000 0.103998 0.019170
                    CHANNELS 3 Zrotation Xrotation Yrotation
                    End Site
                    {
                        OFFSET -0.000000 0.191701 0.000000
                    }
                }
            }
            JOINT LeftCollar
            {
                OFFSET 0.038274 0.205938 -0.001496
                CHANNELS 3 Zrotation Xrotation Yrotation
                JOINT LeftShoulder
                {
                    OFFSET 0.132388 0.000000 0.000000
                    CHANNELS 3 Zrotation Xrotation Yrotation
                    JOINT LeftElbow
                    {
                        OFFSET 0.250301 0.000000 0.000000
                        CHANNELS 3 Zrotation Xrotation Yrotation
                        JOINT LeftWrist
                        {
                            OFFSET 0.285291 0.000000 0.000000
                            CHANNELS 3 Zrotation Xrotation Yrotation
                            End Site
                            {
                                OFFSET 0.000000 -0.143776 0.000000
                            }
                        }
                    }
                }
            }
            JOINT RightCollar
            {
                OFFSET -0.038406 0.205938 -0.001496
                CHANNELS 3 Zrotation Xrotation Yrotation
                JOINT RightShoulder
                {
                    OFFSET -0.132388 0.000000 0.000000
                    CHANNELS 3 Zrotation Xrotation Yrotation
                    JOINT RightElbow
                    {
                        OFFSET -0.250301 0.000000 0.000000
                        CHANNELS 3 Zrotation Xrotation Yrotation
                        JOINT RightWrist
                        {
                            OFFSET -0.285291 0.000000 0.000000
                            CHANNELS 3 Zrotation Xrotation Yrotation
                            End Site
                            {
                                OFFSET -0.000000 -0.143776 0.000000
                            }
                        }
                    }
                }
            }
        }
    }
    JOINT LeftHip
    {
        OFFSET 0.095851 0.000000 0.000000
        CHANNELS 3 Zrotation Xrotation Yrotation
        JOINT LeftKnee
        {
            OFFSET -0.000000 -0.406444 0.000000
            CHANNELS 3 Zrotation Xrotation Yrotation
            JOINT LeftAnkle
            {
                OFFSET -0.000000 -0.408443 0.000000
                CHANNELS 3 Zrotation Xrotation Yrotation
                JOINT LeftToe
                {
                    OFFSET -0.000000 -0.062303 0.143776
                    CHANNELS 3 Zrotation Xrotation Yrotation
                    End Site
                    {
                        OFFSET -0.000000 0.000000 0.038340
                    }
                }
            }
        }
    }
    JOINT RightHip
    {
        OFFSET -0.095851 0.000000 0.000000
        CHANNELS 3 Zrotation Xrotation Yrotation
        JOINT RightKnee
        {
            OFFSET -0.000000 -0.406444 0.000000
            CHANNELS 3 Zrotation Xrotation Yrotation
            JOINT RightAnkle
            {
                OFFSET -0.000000 -0.408443 0.000000
                CHANNELS 3 Zrotation Xrotation Yrotation
                JOINT RightToe
                {
                    OFFSET -0.000000 -0.062303 0.143776
                    CHANNELS 3 Zrotation Xrotation Yrotation
                    End Site
                    {
                        OFFSET -0.000000 0.000000 0.038340
                    }
                }
            }
        }
    }
}
MOTION
Frames:    9
Frame Time:    0.016667
-0.152886    0.861765    0.018717    -3.390626    8.297380    -146.094666    0.055759    2.472290    4.656493    -3.808725    5.293621    1.728705    0.169832    6.880936    -5.172143    -2.450645    11.227035    -4.760149    10.842470    -7.707419    -25.445326    -33.571938    60.791973    -50.250755    -8.574090    0.234485    -14.001968    93.223671    -8.700107    1.065647    -7.675253    -18.615936    27.010389    31.883038    48.220871    53.088619    12.058330    -9.240329    88.051720    -74.446526    -1.598167    -20.344847    9.831825    8.754860    2.010948    -5.350658    19.788813    6.278737    -4.232489    -24.747034    9.997131    0.000000    0.000000    0.000000    -12.235737    6.977112    0.242851    3.807879    9.743722    -1.140289    7.870793    -13.192399    -12.459163    0.000000    0.000000    0.000000    
-0.155702    0.861334    0.017587    -3.680045    8.658803    -146.359985    -0.059793    2.472772    4.901346    -3.924684    5.142875    1.809659    0.674625    6.318390    -5.332744    -2.847368    10.929970    -4.749831    10.876534    -7.413165    -25.667509    -33.659340    60.694145    -50.108673    -8.391551    0.150032    -13.948207    92.789017    -8.539145    1.086481    -7.516651    -18.682066    27.342369    31.005892    48.444057    54.246826    11.368315    -9.680711    88.435760    -73.674339    -2.157415    -20.104424    9.584905    9.571137    2.104776    -5.294660    19.591173    6.471883    -4.198864    -24.933157    9.945845    0.000000    0.000000    0.000000    -12.458583    7.358060    0.480149    3.856509    9.991075    -1.433947    7.959754    -13.333245    -12.083465    0.000000    0.000000    0.000000    
-0.158440    0.860892    0.016771    -3.904616    8.934859    -146.564224    -0.127338    2.437638    5.022744    -3.956739    4.893157    1.842434    0.798644    5.884961    -5.417060    -2.903162    10.687131    -4.810191    10.908923    -7.268562    -25.914892    -33.676891    60.578083    -50.220795    -8.744493    0.246630    -13.601880    92.917290    -8.656342    1.018991    -7.380290    -18.630873    27.793701    30.070168    48.655018    55.426792    11.040379    -10.299968    88.745125    -72.803429    -2.259259    -20.411678    9.321353    10.189145    2.035856    -5.249577    19.484020    6.741748    -4.149428    -25.143829    9.963235    0.000000    0.000000    0.000000    -12.697502    7.694975    0.431965    3.865784    10.151075    -1.324726    8.001659    -13.442416    -11.783066    0.000000    0.000000    0.000000    
-0.160805    0.860597    0.015964    -4.105640    9.211388    -146.851379    -0.195674    2.360054    5.219757    -3.912263    4.853592    1.904386    0.809698    5.217060    -5.460461    -2.759753    10.492471    -4.893800    10.923584    -7.541721    -26.038013    -34.446110    61.306564    -49.657475    -7.855094    0.444289    -13.488687    92.291046    -8.580155    0.657867    -7.441245    -18.831274    28.045248    29.615488    48.910912    56.523907    11.308270    -10.673483    88.863770    -72.763664    -2.130619    -21.055662    9.309013    10.687301    1.751410    -5.761803    19.492790    7.020765    -3.782916    -25.230797    10.369198    0.000000    0.000000    0.000000    -12.841410    7.892317    0.593688    3.720679    10.472063    -1.112751    8.127131    -13.541386    -11.565201    0.000000    0.000000    0.000000    
-0.162861    0.860311    0.015104    -4.227038    9.496406    -147.083496    -0.201451    2.348329    5.375905    -3.925758    4.723468    1.952491    1.120993    4.712243    -5.586524    -2.939138    10.017606    -4.946029    10.999527    -7.577485    -26.110249    -34.109112    61.434372    -50.311371    -8.094654    0.405073    -12.996952    92.200981    -8.484292    0.681845    -7.463323    -19.025482    28.162090    29.537500    49.114120    57.184696    11.687763    -10.806431    89.005005    -72.257240    -2.573318    -21.482094    9.113196    11.123146    1.614296    -5.642560    19.583315    7.308489    -3.881214    -25.361317    10.481232    0.000000    0.000000    0.000000    -12.894253    8.155062    0.488184    3.591986    10.635056    -0.970922    8.256576    -13.580009    -11.243666    0.000000    0.000000    0.000000    
-0.164377    0.859894    0.014130    -4.261030    9.783744    -147.406357    -0.272231    2.206384    5.673488    -3.639299    4.818035    2.042459    1.079316    3.981552    -5.726097    -2.686949    9.877889    -5.161593    10.830610    -7.574024    -26.297373    -33.092857    61.581173    -51.366680    -8.424932    0.173009    -12.623077    92.289993    -8.547879    0.931643    -7.615891    -19.158031    28.132170    29.536903    49.298706    57.797909    11.382228    -10.913714    88.817734    -72.001396    -2.674202    -21.242910    9.080298    11.521411    1.577415    -5.654836    19.693415    7.571702    -3.690400    -25.626755    10.590259    0.000000    0.000000    0.000000    -12.906515    8.329960    0.607072    3.628030    10.796371    -0.925568    8.254673    -13.692889    -11.077213    0.000000    0.000000    0.000000    
-0.165734    0.859107    0.013419    -4.209175    10.035729    -147.609390    -0.174943    2.063585    5.853726    -3.501704    4.898537    2.099926    1.114953    3.461287    -5.884710    -2.568730    9.447441    -5.359180    10.792028    -7.662562    -26.473814    -33.268032    61.523926    -51.390007    -8.676244    -0.082776    -12.322475    92.702423    -8.513364    1.222237    -7.693856    -19.301788    28.201424    29.811937    49.513100    58.125175    11.744227    -10.934058    88.584724    -71.900665    -3.126205    -21.479593    9.188486    11.746976    1.370790    -5.820378    19.912745    7.833682    -3.493411    -26.062298    10.766537    0.000000    0.000000    0.000000    -12.825977    8.379016    0.461317    3.560475    11.121633    -0.810861    8.401870    -13.948432    -10.765670    0.000000    0.000000    0.000000    
-0.166695    0.858336    0.012516    -4.187679    10.304181    -147.758972    -0.065324    2.010600    5.962689    -3.520367    4.977485    2.140131    1.221757    2.989498    -6.048100    -2.336931    8.952147    -5.573903    10.953464    -7.745432    -26.534266    -33.508053    61.635338    -51.497200    -8.528954    -0.058038    -11.907354    92.627876    -8.455625    1.143390    -7.718298    -19.246252    28.204142    29.975544    49.611156    58.522404    12.504541    -10.806632    88.505394    -72.289375    -3.454123    -22.005148    9.296782    12.035388    1.294101    -5.853171    20.041376    7.933097    -3.536438    -26.434380    10.818731    0.000000    0.000000    0.000000    -12.767723    8.486664    0.417935    3.598570    11.423673    -0.464482    8.356764    -14.255988    -10.844370    0.000000    0.000000    0.000000    
-0.167597    0.857753    0.011682    -4.241491    10.526244    -147.902481    -0.075963    1.968157    6.121104    -3.453724    5.094186    2.193494    1.286080    2.472209    -6.229438    -2.141076    8.748855    -5.800679    11.053363    -7.702656    -26.586418    -33.880791    61.501125    -51.381893    -8.419806    -0.082025    -11.682383    92.597351    -8.306191    1.133538    -7.715934    -19.125406    28.160435    30.387932    49.562485    58.404591    13.439248    -10.195092    88.644440    -72.715439    -3.676430    -22.301916    9.290358    12.282154    1.253685    -5.831334    20.234781    8.045562    -3.550531    -26.701649    10.834620    0.000000    0.000000    0.000000    -12.863653    8.554795    0.476271    3.777677    11.779043    -0.281339    8.302230    -14.517235    -10.835632    0.000000    0.000000    0.000000    
